# Blender v2.81 (sub 16) OBJ File: 'bombe_haut.blend'
# www.blender.org
mtllib bombe_haut.mtl
o pCube2.001_Mesh.022
v -0.257291 -0.071562 0.302154
v -0.257291 0.012855 0.302154
v -0.268122 -0.071562 0.302154
v -0.268122 0.012855 0.302154
v -0.268122 -0.071562 -0.302415
v -0.268122 0.012855 -0.302415
v -0.257291 -0.071562 -0.302415
v -0.257291 0.012855 -0.302415
vt 0.375000 0.000000
vt 0.625000 0.000000
vt 0.625000 0.250000
vt 0.375000 0.250000
vt 0.625000 0.500000
vt 0.375000 0.500000
vt 0.625000 0.750000
vt 0.375000 0.750000
vt 0.625000 1.000000
vt 0.375000 1.000000
vt 0.875000 0.000000
vt 0.875000 0.250000
vt 0.125000 0.000000
vt 0.125000 0.250000
vn 0.0000 0.0000 1.0000
vn -1.0000 0.0000 0.0000
vn 0.0000 0.0000 -1.0000
vn 1.0000 -0.0000 -0.0000
vn 0.0000 1.0000 -0.0000
vn 0.0000 -1.0000 0.0000
usemtl blinn1.003
s 1
f 1/1/1 2/2/1 4/3/1 3/4/1
f 3/4/2 4/3/2 6/5/2 5/6/2
f 5/6/3 6/5/3 8/7/3 7/8/3
f 7/8/4 8/7/4 2/9/4 1/10/4
f 2/2/5 8/11/5 6/12/5 4/3/5
f 7/13/6 1/1/6 3/4/6 5/14/6
o pCube3.001_Mesh.023
v 0.276251 -0.071562 0.302154
v 0.276251 0.012855 0.302154
v 0.265421 -0.071562 0.302154
v 0.265421 0.012855 0.302154
v 0.265420 -0.071562 -0.302415
v 0.265420 0.012855 -0.302415
v 0.276251 -0.071562 -0.302415
v 0.276251 0.012855 -0.302415
vt 0.375000 0.000000
vt 0.625000 0.000000
vt 0.625000 0.250000
vt 0.375000 0.250000
vt 0.625000 0.500000
vt 0.375000 0.500000
vt 0.625000 0.750000
vt 0.375000 0.750000
vt 0.625000 1.000000
vt 0.375000 1.000000
vt 0.875000 0.000000
vt 0.875000 0.250000
vt 0.125000 0.000000
vt 0.125000 0.250000
vn 0.0000 0.0000 1.0000
vn -1.0000 0.0000 0.0000
vn 0.0000 0.0000 -1.0000
vn 1.0000 0.0000 -0.0000
vn 0.0000 1.0000 -0.0000
vn 0.0000 -1.0000 0.0000
usemtl blinn1.003
s 1
f 9/15/7 10/16/7 12/17/7 11/18/7
f 11/18/8 12/17/8 14/19/8 13/20/8
f 13/20/9 14/19/9 16/21/9 15/22/9
f 15/22/10 16/21/10 10/23/10 9/24/10
f 10/16/11 16/25/11 14/26/11 12/17/11
f 15/27/12 9/15/12 11/18/12 13/28/12
o pCube4.001_Mesh.024
v 0.275294 -0.071562 0.297532
v 0.275294 0.012855 0.297532
v 0.275294 -0.071562 0.308362
v 0.275294 0.012855 0.308362
v -0.268963 -0.071562 0.308363
v -0.268963 0.012855 0.308363
v -0.268963 -0.071562 0.297532
v -0.268963 0.012855 0.297532
vt 0.375000 0.000000
vt 0.625000 0.000000
vt 0.625000 0.250000
vt 0.375000 0.250000
vt 0.625000 0.500000
vt 0.375000 0.500000
vt 0.625000 0.750000
vt 0.375000 0.750000
vt 0.625000 1.000000
vt 0.375000 1.000000
vt 0.875000 0.000000
vt 0.875000 0.250000
vt 0.125000 0.000000
vt 0.125000 0.250000
vn 1.0000 0.0000 0.0000
vn 0.0000 0.0000 1.0000
vn -1.0000 0.0000 0.0000
vn -0.0000 0.0000 -1.0000
vn 0.0000 1.0000 0.0000
vn -0.0000 -1.0000 0.0000
usemtl blinn1.003
s 1
f 17/29/13 18/30/13 20/31/13 19/32/13
f 19/32/14 20/31/14 22/33/14 21/34/14
f 21/34/15 22/33/15 24/35/15 23/36/15
f 23/36/16 24/35/16 18/37/16 17/38/16
f 18/30/17 24/39/17 22/40/17 20/31/17
f 23/41/18 17/29/18 19/32/18 21/42/18
o pCube5.001_Mesh.025
v 0.275294 -0.071562 -0.309126
v 0.275294 0.012855 -0.309126
v 0.275294 -0.071562 -0.298296
v 0.275294 0.012855 -0.298296
v -0.268963 -0.071562 -0.298295
v -0.268963 0.012855 -0.298295
v -0.268963 -0.071562 -0.309126
v -0.268963 0.012855 -0.309126
vt 0.375000 0.000000
vt 0.625000 0.000000
vt 0.625000 0.250000
vt 0.375000 0.250000
vt 0.625000 0.500000
vt 0.375000 0.500000
vt 0.625000 0.750000
vt 0.375000 0.750000
vt 0.625000 1.000000
vt 0.375000 1.000000
vt 0.875000 0.000000
vt 0.875000 0.250000
vt 0.125000 0.000000
vt 0.125000 0.250000
vn 1.0000 0.0000 0.0000
vn 0.0000 0.0000 1.0000
vn -1.0000 0.0000 0.0000
vn -0.0000 0.0000 -1.0000
vn 0.0000 1.0000 0.0000
vn -0.0000 -1.0000 0.0000
usemtl blinn1.003
s 1
f 25/43/19 26/44/19 28/45/19 27/46/19
f 27/46/20 28/45/20 30/47/20 29/48/20
f 29/48/21 30/47/21 32/49/21 31/50/21
f 31/50/22 32/49/22 26/51/22 25/52/22
f 26/44/23 32/53/23 30/54/23 28/45/23
f 31/55/24 25/43/24 27/46/24 29/56/24
o pCube6.001_Mesh.026
v -0.266065 0.003483 0.302154
v 0.265772 0.003483 0.302154
v -0.266065 0.014314 0.302154
v 0.265772 0.014314 0.302154
v -0.266065 0.014314 -0.302415
v 0.265772 0.014314 -0.302415
v -0.266065 0.003483 -0.302415
v 0.265772 0.003483 -0.302415
v -0.088786 0.003483 0.302154
v 0.088493 0.003483 0.302154
v 0.088493 0.014314 0.302154
v -0.088786 0.014314 0.302154
v 0.088493 0.014314 -0.302415
v -0.088786 0.014314 -0.302415
v 0.088493 0.003483 -0.302415
v -0.088786 0.003483 -0.302415
v -0.266065 0.014314 -0.224765
v -0.266065 0.014314 -0.170451
v 0.265772 0.014314 -0.170451
v 0.265772 0.014314 -0.224765
v -0.266065 0.003483 -0.170451
v -0.266065 0.003483 -0.224765
v 0.265772 0.003483 -0.224765
v 0.265772 0.003483 -0.170451
v -0.088786 0.003483 -0.224765
v -0.088786 0.003483 -0.170451
v 0.088493 0.003483 -0.224765
v 0.088493 0.003483 -0.170451
v 0.088493 0.038196 -0.224765
v 0.088493 0.038196 -0.170451
v -0.088786 0.038196 -0.224765
v -0.088786 0.038196 -0.170451
v -0.088786 0.014314 -0.170451
v -0.088786 0.014314 -0.224765
v 0.088493 0.014314 -0.170451
v 0.088493 0.014314 -0.224765
v -0.088786 0.036095 -0.170451
v -0.088786 0.036095 -0.224765
v 0.088493 0.036095 -0.170451
v 0.088493 0.036095 -0.224765
v -0.084536 0.036095 -0.175282
v -0.084536 0.036095 -0.219934
v 0.084243 0.036095 -0.175282
v 0.084243 0.036095 -0.219934
v -0.084536 0.038196 -0.175282
v -0.084536 0.038196 -0.219934
v 0.084243 0.038196 -0.175282
v 0.084243 0.038196 -0.219934
vt 0.541667 0.000000
vt 0.625000 0.000000
vt 0.625000 0.250000
vt 0.541667 0.250000
vt 0.541667 0.416667
vt 0.625000 0.416667
vt 0.625000 0.500000
vt 0.541667 0.500000
vt 0.625000 0.750000
vt 0.541667 0.750000
vt 0.541667 0.916667
vt 0.625000 0.916667
vt 0.625000 1.000000
vt 0.541667 1.000000
vt 0.791667 0.000000
vt 0.875000 0.000000
vt 0.875000 0.250000
vt 0.791667 0.250000
vt 0.291667 0.000000
vt 0.375000 0.000000
vt 0.375000 0.250000
vt 0.291667 0.250000
vt 0.375000 0.916667
vt 0.458333 0.916667
vt 0.458333 1.000000
vt 0.375000 1.000000
vt 0.375000 0.500000
vt 0.458333 0.500000
vt 0.458333 0.750000
vt 0.375000 0.750000
vt 0.375000 0.416667
vt 0.458333 0.416667
vt 0.458333 0.000000
vt 0.458333 0.250000
vt 0.541667 0.333333
vt 0.458333 0.333333
vt 0.460331 0.340745
vt 0.460331 0.409255
vt 0.458333 0.416667
vt 0.458333 0.333333
vt 0.375000 0.333333
vt 0.541667 0.833333
vt 0.458333 0.833333
vt 0.375000 0.833333
vt 0.125000 0.000000
vt 0.208333 0.000000
vt 0.208333 0.250000
vt 0.125000 0.250000
vt 0.708333 0.000000
vt 0.708333 0.250000
vt 0.625000 0.833333
vt 0.625000 0.333333
vt 0.541667 0.333333
vt 0.458333 0.333333
vt 0.458333 0.416667
vt 0.541667 0.416667
vt 0.541667 0.416667
vt 0.541667 0.333333
vt 0.539669 0.409255
vt 0.539669 0.340745
vt 0.539669 0.340745
vt 0.539669 0.409255
vt 0.460331 0.409255
vt 0.460331 0.340745
vn 0.0000 0.0000 1.0000
vn 0.3015 0.9045 -0.3015
vn 0.0000 1.0000 0.0000
vn 0.0000 0.0000 -1.0000
vn 0.0000 -1.0000 -0.0000
vn 1.0000 0.0000 -0.0000
vn -1.0000 0.0000 0.0000
vn -0.3015 0.9045 -0.3015
vn 0.3015 0.9045 0.3015
vn -0.3015 0.9045 0.3015
vn -0.5774 0.5774 -0.5774
vn -0.5774 0.5774 0.5774
vn 0.7071 -0.0000 0.7071
vn -0.7071 -0.0000 0.7071
vn -0.7071 0.0000 -0.7071
vn 0.7071 0.0000 -0.7071
vn 0.5774 0.5774 -0.5774
vn 0.5774 0.5774 0.5774
usemtl blinn1.003
s 1
f 42/57/25 34/58/25 36/59/25 43/60/25
f 68/61/26 52/62/27 38/63/27 45/64/27
f 45/64/28 38/63/28 40/65/28 47/66/28
f 60/67/29 56/68/29 34/69/29 42/70/29
f 55/71/30 40/72/30 38/73/30 52/74/30
f 53/75/31 33/76/31 35/77/31 50/78/31
f 53/79/29 58/80/29 41/81/29 33/82/29
f 58/80/29 60/67/29 42/70/29 41/81/29
f 37/83/28 46/84/28 48/85/28 39/86/28
f 46/84/28 45/64/28 47/66/28 48/85/28
f 49/87/27 66/88/32 46/84/27 37/83/27
f 66/88/32 68/61/26 45/64/27 46/84/27
f 33/76/25 41/89/25 44/90/25 35/77/25
f 41/89/25 42/57/25 43/60/25 44/90/25
f 44/90/27 43/60/27 67/91/33 65/92/34
f 77/93/26 78/94/33 63/95/35 64/96/36
f 35/77/27 44/90/27 65/92/34 50/97/27
f 50/97/27 65/92/34 66/88/32 49/87/27
f 48/85/29 47/66/29 59/98/29 57/99/29
f 57/99/29 59/98/29 60/67/29 58/80/29
f 39/86/29 48/85/29 57/99/29 54/100/29
f 54/100/29 57/99/29 58/80/29 53/79/29
f 39/101/31 54/102/31 49/103/31 37/104/31
f 54/102/31 53/75/31 50/78/31 49/103/31
f 34/58/30 56/105/30 51/106/30 36/59/30
f 56/105/30 55/71/30 52/74/30 51/106/30
f 47/66/29 40/65/29 55/107/29 59/98/29
f 59/98/29 55/107/29 56/68/29 60/67/29
f 43/60/27 36/59/27 51/108/27 67/91/33
f 67/91/33 51/108/27 52/62/27 68/61/26
f 65/92/34 67/91/33 71/109/37 69/110/38
f 66/88/32 65/92/34 69/110/38 70/111/39
f 67/91/33 68/61/26 72/112/40 71/109/37
f 68/61/26 66/88/32 70/111/39 72/112/40
f 71/109/37 72/112/40 61/113/41 62/114/42
f 72/112/40 70/111/39 63/95/35 61/113/41
f 76/115/36 75/116/35 79/117/32 80/118/34
f 74/119/42 76/115/36 80/118/34 78/94/33
f 80/118/34 79/117/32 62/114/42 61/113/41
f 79/117/32 77/93/26 64/96/36 62/114/42
f 78/94/33 80/118/34 61/113/41 63/95/35
f 75/116/35 73/120/41 77/93/26 79/117/32
f 73/120/41 74/119/42 78/94/33 77/93/26
f 69/110/38 71/109/37 62/114/42 64/96/36
f 70/111/39 69/110/38 64/96/36 63/95/35
usemtl Material.001
f 73/120/41 75/116/35 76/115/36 74/119/42
o pCube7_Mesh.027
v 0.141958 0.007120 0.007348
v 0.156915 0.007120 0.007348
v 0.141958 0.070764 0.007348
v 0.156915 0.070764 0.007348
v 0.141958 0.070764 -0.007609
v 0.156915 0.070764 -0.007609
v 0.141958 0.007120 -0.007609
v 0.156915 0.007120 -0.007609
vt 0.375000 0.000000
vt 0.625000 0.000000
vt 0.625000 0.250000
vt 0.375000 0.250000
vt 0.625000 0.500000
vt 0.375000 0.500000
vt 0.625000 0.750000
vt 0.375000 0.750000
vt 0.625000 1.000000
vt 0.375000 1.000000
vt 0.875000 0.000000
vt 0.875000 0.250000
vt 0.125000 0.000000
vt 0.125000 0.250000
vn 0.0000 -0.0000 1.0000
vn 0.0000 1.0000 0.0000
vn 0.0000 0.0000 -1.0000
vn 0.0000 -1.0000 0.0000
vn 1.0000 0.0000 0.0000
vn -1.0000 0.0000 0.0000
usemtl blinn1.003
s 1
f 81/121/43 82/122/43 84/123/43 83/124/43
f 83/124/44 84/123/44 86/125/44 85/126/44
f 85/126/45 86/125/45 88/127/45 87/128/45
f 87/128/46 88/127/46 82/129/46 81/130/46
f 82/122/47 88/131/47 86/132/47 84/123/47
f 87/133/48 81/121/48 83/124/48 85/134/48
o pCube8_Mesh.028
v -0.163478 0.006976 0.007348
v -0.148521 0.006976 0.007348
v -0.163478 0.070620 0.007348
v -0.148521 0.070620 0.007348
v -0.163478 0.070620 -0.007609
v -0.148521 0.070620 -0.007609
v -0.163478 0.006976 -0.007609
v -0.148521 0.006976 -0.007609
vt 0.375000 0.000000
vt 0.625000 0.000000
vt 0.625000 0.250000
vt 0.375000 0.250000
vt 0.625000 0.500000
vt 0.375000 0.500000
vt 0.625000 0.750000
vt 0.375000 0.750000
vt 0.625000 1.000000
vt 0.375000 1.000000
vt 0.875000 0.000000
vt 0.875000 0.250000
vt 0.125000 0.000000
vt 0.125000 0.250000
vn 0.0000 -0.0000 1.0000
vn 0.0000 1.0000 0.0000
vn 0.0000 0.0000 -1.0000
vn 0.0000 -1.0000 0.0000
vn 1.0000 0.0000 0.0000
vn -1.0000 0.0000 0.0000
usemtl blinn1.003
s 1
f 89/135/49 90/136/49 92/137/49 91/138/49
f 91/138/50 92/137/50 94/139/50 93/140/50
f 93/140/51 94/139/51 96/141/51 95/142/51
f 95/142/52 96/141/52 90/143/52 89/144/52
f 90/136/53 96/145/53 94/146/53 92/137/53
f 95/147/54 89/135/54 91/138/54 93/148/54
o pCube9_Mesh.029
v 0.173064 0.065270 0.023890
v 0.173064 0.072460 0.023890
v -0.177641 0.065270 0.023890
v -0.177641 0.072460 0.023890
v -0.177641 0.065270 -0.024151
v -0.177641 0.072460 -0.024151
v 0.173064 0.065270 -0.024151
v 0.173064 0.072460 -0.024151
vt 0.375000 0.000000
vt 0.625000 0.000000
vt 0.625000 0.250000
vt 0.375000 0.250000
vt 0.625000 0.500000
vt 0.375000 0.500000
vt 0.625000 0.750000
vt 0.375000 0.750000
vt 0.625000 1.000000
vt 0.375000 1.000000
vt 0.875000 0.000000
vt 0.875000 0.250000
vt 0.125000 0.000000
vt 0.125000 0.250000
vn 0.0000 0.0000 1.0000
vn -1.0000 0.0000 0.0000
vn -0.0000 0.0000 -1.0000
vn 1.0000 0.0000 0.0000
vn 0.0000 1.0000 0.0000
vn -0.0000 -1.0000 0.0000
usemtl blinn1.003
s 1
f 97/149/55 98/150/55 100/151/55 99/152/55
f 99/152/56 100/151/56 102/153/56 101/154/56
f 101/154/57 102/153/57 104/155/57 103/156/57
f 103/156/58 104/155/58 98/157/58 97/158/58
f 98/150/59 104/159/59 102/160/59 100/151/59
f 103/161/60 97/149/60 99/152/60 101/162/60
o pCylinder1_Mesh.030
v -0.152700 0.060197 -0.000186
v -0.153173 0.060197 -0.001114
v -0.153909 0.060197 -0.001851
v -0.154838 0.060197 -0.002324
v -0.155867 0.060197 -0.002487
v -0.156896 0.060197 -0.002324
v -0.157825 0.060197 -0.001851
v -0.158562 0.060197 -0.001114
v -0.159035 0.060197 -0.000186
v -0.159198 0.060197 0.000844
v -0.159035 0.060197 0.001873
v -0.158562 0.060197 0.002801
v -0.157825 0.060197 0.003538
v -0.156896 0.060197 0.004011
v -0.155867 0.060197 0.004174
v -0.154838 0.060197 0.004011
v -0.153909 0.060197 0.003538
v -0.153173 0.060197 0.002801
v -0.152700 0.060197 0.001873
v -0.152537 0.060197 0.000844
v -0.152700 0.074193 -0.000186
v -0.153173 0.074193 -0.001114
v -0.153909 0.074193 -0.001851
v -0.154838 0.074193 -0.002324
v -0.155867 0.074193 -0.002487
v -0.156896 0.074193 -0.002324
v -0.157825 0.074193 -0.001851
v -0.158562 0.074193 -0.001114
v -0.159035 0.074193 -0.000186
v -0.159198 0.074193 0.000844
v -0.159035 0.074193 0.001873
v -0.158562 0.074193 0.002801
v -0.157825 0.074193 0.003538
v -0.156896 0.074193 0.004011
v -0.155867 0.074193 0.004174
v -0.154838 0.074193 0.004011
v -0.153909 0.074193 0.003538
v -0.153173 0.074193 0.002801
v -0.152700 0.074193 0.001873
v -0.152537 0.074193 0.000844
v -0.155867 0.060197 0.000844
v -0.155867 0.074193 0.000844
vt 0.375000 0.312500
vt 0.387500 0.312500
vt 0.387500 0.688440
vt 0.375000 0.688440
vt 0.400000 0.312500
vt 0.400000 0.688440
vt 0.412500 0.312500
vt 0.412500 0.688440
vt 0.425000 0.312500
vt 0.425000 0.688440
vt 0.437500 0.312500
vt 0.437500 0.688440
vt 0.450000 0.312500
vt 0.450000 0.688440
vt 0.462500 0.312500
vt 0.462500 0.688440
vt 0.475000 0.312500
vt 0.475000 0.688440
vt 0.487500 0.312500
vt 0.487500 0.688440
vt 0.500000 0.312500
vt 0.500000 0.688440
vt 0.512500 0.312500
vt 0.512500 0.688440
vt 0.525000 0.312500
vt 0.525000 0.688440
vt 0.537500 0.312500
vt 0.537500 0.688440
vt 0.550000 0.312500
vt 0.550000 0.688440
vt 0.562500 0.312500
vt 0.562500 0.688440
vt 0.575000 0.312500
vt 0.575000 0.688440
vt 0.587500 0.312500
vt 0.587500 0.688440
vt 0.600000 0.312500
vt 0.600000 0.688440
vt 0.612500 0.312500
vt 0.612500 0.688440
vt 0.625000 0.312500
vt 0.625000 0.688440
vt 0.626409 0.064408
vt 0.648603 0.107966
vt 0.500000 0.150000
vt 0.591842 0.029841
vt 0.548284 0.007647
vt 0.500000 -0.000000
vt 0.451716 0.007647
vt 0.408159 0.029841
vt 0.373591 0.064409
vt 0.351397 0.107966
vt 0.343750 0.156250
vt 0.351397 0.204534
vt 0.373591 0.248091
vt 0.408159 0.282659
vt 0.451716 0.304853
vt 0.500000 0.312500
vt 0.548284 0.304853
vt 0.591841 0.282659
vt 0.626409 0.248091
vt 0.648603 0.204534
vt 0.656250 0.156250
vt 0.648603 0.892034
vt 0.626409 0.935591
vt 0.500000 0.837500
vt 0.591841 0.970159
vt 0.548284 0.992353
vt 0.500000 1.000000
vt 0.451716 0.992353
vt 0.408159 0.970159
vt 0.373591 0.935591
vt 0.351397 0.892034
vt 0.343750 0.843750
vt 0.351397 0.795466
vt 0.373591 0.751909
vt 0.408159 0.717341
vt 0.451716 0.695147
vt 0.500000 0.687500
vt 0.548284 0.695147
vt 0.591842 0.717341
vt 0.626409 0.751908
vt 0.648603 0.795466
vt 0.656250 0.843750
vn 0.9511 0.0000 -0.3090
vn 0.8090 0.0000 -0.5878
vn 0.5878 0.0000 -0.8090
vn 0.3090 0.0000 -0.9511
vn 0.0000 0.0000 -1.0000
vn -0.3090 0.0000 -0.9511
vn -0.5878 0.0000 -0.8090
vn -0.8090 0.0000 -0.5878
vn -0.9511 0.0000 -0.3090
vn -1.0000 0.0000 -0.0000
vn -0.9511 0.0000 0.3090
vn -0.8090 0.0000 0.5878
vn -0.5878 -0.0000 0.8090
vn -0.3090 -0.0000 0.9511
vn 0.0000 -0.0000 1.0000
vn 0.3090 -0.0000 0.9511
vn 0.5878 -0.0000 0.8090
vn 0.8090 -0.0000 0.5878
vn 0.9511 -0.0000 0.3090
vn 1.0000 0.0000 0.0000
vn 0.0000 -1.0000 0.0000
vn 0.0000 1.0000 0.0000
usemtl lambert1.001
s 1
f 105/163/61 106/164/62 126/165/62 125/166/61
f 106/164/62 107/167/63 127/168/63 126/165/62
f 107/167/63 108/169/64 128/170/64 127/168/63
f 108/169/64 109/171/65 129/172/65 128/170/64
f 109/171/65 110/173/66 130/174/66 129/172/65
f 110/173/66 111/175/67 131/176/67 130/174/66
f 111/175/67 112/177/68 132/178/68 131/176/67
f 112/177/68 113/179/69 133/180/69 132/178/68
f 113/179/69 114/181/70 134/182/70 133/180/69
f 114/181/70 115/183/71 135/184/71 134/182/70
f 115/183/71 116/185/72 136/186/72 135/184/71
f 116/185/72 117/187/73 137/188/73 136/186/72
f 117/187/73 118/189/74 138/190/74 137/188/73
f 118/189/74 119/191/75 139/192/75 138/190/74
f 119/191/75 120/193/76 140/194/76 139/192/75
f 120/193/76 121/195/77 141/196/77 140/194/76
f 121/195/77 122/197/78 142/198/78 141/196/77
f 122/197/78 123/199/79 143/200/79 142/198/78
f 123/199/79 124/201/80 144/202/80 143/200/79
f 124/201/80 105/203/61 125/204/61 144/202/80
f 106/205/81 105/206/81 145/207/81
f 107/208/81 106/205/81 145/207/81
f 108/209/81 107/208/81 145/207/81
f 109/210/81 108/209/81 145/207/81
f 110/211/81 109/210/81 145/207/81
f 111/212/81 110/211/81 145/207/81
f 112/213/81 111/212/81 145/207/81
f 113/214/81 112/213/81 145/207/81
f 114/215/81 113/214/81 145/207/81
f 115/216/81 114/215/81 145/207/81
f 116/217/81 115/216/81 145/207/81
f 117/218/81 116/217/81 145/207/81
f 118/219/81 117/218/81 145/207/81
f 119/220/81 118/219/81 145/207/81
f 120/221/81 119/220/81 145/207/81
f 121/222/81 120/221/81 145/207/81
f 122/223/81 121/222/81 145/207/81
f 123/224/81 122/223/81 145/207/81
f 124/225/81 123/224/81 145/207/81
f 105/206/81 124/225/81 145/207/81
f 125/226/82 126/227/82 146/228/82
f 126/227/82 127/229/82 146/228/82
f 127/229/82 128/230/82 146/228/82
f 128/230/82 129/231/82 146/228/82
f 129/231/82 130/232/82 146/228/82
f 130/232/82 131/233/82 146/228/82
f 131/233/82 132/234/82 146/228/82
f 132/234/82 133/235/82 146/228/82
f 133/235/82 134/236/82 146/228/82
f 134/236/82 135/237/82 146/228/82
f 135/237/82 136/238/82 146/228/82
f 136/238/82 137/239/82 146/228/82
f 137/239/82 138/240/82 146/228/82
f 138/240/82 139/241/82 146/228/82
f 139/241/82 140/242/82 146/228/82
f 140/242/82 141/243/82 146/228/82
f 141/243/82 142/244/82 146/228/82
f 142/244/82 143/245/82 146/228/82
f 143/245/82 144/246/82 146/228/82
f 144/246/82 125/226/82 146/228/82
o pCylinder2_Mesh.031
v 0.153731 0.060197 -0.000186
v 0.153258 0.060197 -0.001114
v 0.152521 0.060197 -0.001851
v 0.151593 0.060197 -0.002324
v 0.150564 0.060197 -0.002487
v 0.149534 0.060197 -0.002324
v 0.148606 0.060197 -0.001851
v 0.147869 0.060197 -0.001114
v 0.147396 0.060197 -0.000186
v 0.147233 0.060197 0.000844
v 0.147396 0.060197 0.001873
v 0.147869 0.060197 0.002801
v 0.148606 0.060197 0.003538
v 0.149534 0.060197 0.004011
v 0.150564 0.060197 0.004174
v 0.151593 0.060197 0.004011
v 0.152521 0.060197 0.003538
v 0.153258 0.060197 0.002801
v 0.153731 0.060197 0.001873
v 0.153894 0.060197 0.000844
v 0.153731 0.074193 -0.000186
v 0.153258 0.074193 -0.001114
v 0.152521 0.074193 -0.001851
v 0.151593 0.074193 -0.002324
v 0.150564 0.074193 -0.002487
v 0.149534 0.074193 -0.002324
v 0.148606 0.074193 -0.001851
v 0.147869 0.074193 -0.001114
v 0.147396 0.074193 -0.000186
v 0.147233 0.074193 0.000844
v 0.147396 0.074193 0.001873
v 0.147869 0.074193 0.002801
v 0.148606 0.074193 0.003538
v 0.149534 0.074193 0.004011
v 0.150564 0.074193 0.004174
v 0.151593 0.074193 0.004011
v 0.152521 0.074193 0.003538
v 0.153258 0.074193 0.002801
v 0.153731 0.074193 0.001873
v 0.153894 0.074193 0.000844
v 0.150564 0.060197 0.000844
v 0.150564 0.074193 0.000844
vt 0.375000 0.312500
vt 0.387500 0.312500
vt 0.387500 0.688440
vt 0.375000 0.688440
vt 0.400000 0.312500
vt 0.400000 0.688440
vt 0.412500 0.312500
vt 0.412500 0.688440
vt 0.425000 0.312500
vt 0.425000 0.688440
vt 0.437500 0.312500
vt 0.437500 0.688440
vt 0.450000 0.312500
vt 0.450000 0.688440
vt 0.462500 0.312500
vt 0.462500 0.688440
vt 0.475000 0.312500
vt 0.475000 0.688440
vt 0.487500 0.312500
vt 0.487500 0.688440
vt 0.500000 0.312500
vt 0.500000 0.688440
vt 0.512500 0.312500
vt 0.512500 0.688440
vt 0.525000 0.312500
vt 0.525000 0.688440
vt 0.537500 0.312500
vt 0.537500 0.688440
vt 0.550000 0.312500
vt 0.550000 0.688440
vt 0.562500 0.312500
vt 0.562500 0.688440
vt 0.575000 0.312500
vt 0.575000 0.688440
vt 0.587500 0.312500
vt 0.587500 0.688440
vt 0.600000 0.312500
vt 0.600000 0.688440
vt 0.612500 0.312500
vt 0.612500 0.688440
vt 0.625000 0.312500
vt 0.625000 0.688440
vt 0.626409 0.064408
vt 0.648603 0.107966
vt 0.500000 0.150000
vt 0.591842 0.029841
vt 0.548284 0.007647
vt 0.500000 -0.000000
vt 0.451716 0.007647
vt 0.408159 0.029841
vt 0.373591 0.064409
vt 0.351397 0.107966
vt 0.343750 0.156250
vt 0.351397 0.204534
vt 0.373591 0.248091
vt 0.408159 0.282659
vt 0.451716 0.304853
vt 0.500000 0.312500
vt 0.548284 0.304853
vt 0.591841 0.282659
vt 0.626409 0.248091
vt 0.648603 0.204534
vt 0.656250 0.156250
vt 0.648603 0.892034
vt 0.626409 0.935591
vt 0.500000 0.837500
vt 0.591841 0.970159
vt 0.548284 0.992353
vt 0.500000 1.000000
vt 0.451716 0.992353
vt 0.408159 0.970159
vt 0.373591 0.935591
vt 0.351397 0.892034
vt 0.343750 0.843750
vt 0.351397 0.795466
vt 0.373591 0.751909
vt 0.408159 0.717341
vt 0.451716 0.695147
vt 0.500000 0.687500
vt 0.548284 0.695147
vt 0.591842 0.717341
vt 0.626409 0.751908
vt 0.648603 0.795466
vt 0.656250 0.843750
vn 0.9511 0.0000 -0.3090
vn 0.8090 0.0000 -0.5878
vn 0.5878 0.0000 -0.8090
vn 0.3090 0.0000 -0.9511
vn 0.0000 0.0000 -1.0000
vn -0.3090 0.0000 -0.9511
vn -0.5878 0.0000 -0.8090
vn -0.8090 0.0000 -0.5878
vn -0.9511 0.0000 -0.3090
vn -1.0000 0.0000 -0.0000
vn -0.9511 0.0000 0.3090
vn -0.8090 -0.0000 0.5878
vn -0.5878 -0.0000 0.8090
vn -0.3090 -0.0000 0.9511
vn 0.0000 -0.0000 1.0000
vn 0.3090 -0.0000 0.9511
vn 0.5878 0.0000 0.8090
vn 0.8090 0.0000 0.5878
vn 0.9511 0.0000 0.3090
vn 1.0000 0.0000 0.0000
vn 0.0000 -1.0000 0.0000
vn 0.0000 1.0000 0.0000
usemtl lambert1.001
s 1
f 147/247/83 148/248/84 168/249/84 167/250/83
f 148/248/84 149/251/85 169/252/85 168/249/84
f 149/251/85 150/253/86 170/254/86 169/252/85
f 150/253/86 151/255/87 171/256/87 170/254/86
f 151/255/87 152/257/88 172/258/88 171/256/87
f 152/257/88 153/259/89 173/260/89 172/258/88
f 153/259/89 154/261/90 174/262/90 173/260/89
f 154/261/90 155/263/91 175/264/91 174/262/90
f 155/263/91 156/265/92 176/266/92 175/264/91
f 156/265/92 157/267/93 177/268/93 176/266/92
f 157/267/93 158/269/94 178/270/94 177/268/93
f 158/269/94 159/271/95 179/272/95 178/270/94
f 159/271/95 160/273/96 180/274/96 179/272/95
f 160/273/96 161/275/97 181/276/97 180/274/96
f 161/275/97 162/277/98 182/278/98 181/276/97
f 162/277/98 163/279/99 183/280/99 182/278/98
f 163/279/99 164/281/100 184/282/100 183/280/99
f 164/281/100 165/283/101 185/284/101 184/282/100
f 165/283/101 166/285/102 186/286/102 185/284/101
f 166/285/102 147/287/83 167/288/83 186/286/102
f 148/289/103 147/290/103 187/291/103
f 149/292/103 148/289/103 187/291/103
f 150/293/103 149/292/103 187/291/103
f 151/294/103 150/293/103 187/291/103
f 152/295/103 151/294/103 187/291/103
f 153/296/103 152/295/103 187/291/103
f 154/297/103 153/296/103 187/291/103
f 155/298/103 154/297/103 187/291/103
f 156/299/103 155/298/103 187/291/103
f 157/300/103 156/299/103 187/291/103
f 158/301/103 157/300/103 187/291/103
f 159/302/103 158/301/103 187/291/103
f 160/303/103 159/302/103 187/291/103
f 161/304/103 160/303/103 187/291/103
f 162/305/103 161/304/103 187/291/103
f 163/306/103 162/305/103 187/291/103
f 164/307/103 163/306/103 187/291/103
f 165/308/103 164/307/103 187/291/103
f 166/309/103 165/308/103 187/291/103
f 147/290/103 166/309/103 187/291/103
f 167/310/104 168/311/104 188/312/104
f 168/311/104 169/313/104 188/312/104
f 169/313/104 170/314/104 188/312/104
f 170/314/104 171/315/104 188/312/104
f 171/315/104 172/316/104 188/312/104
f 172/316/104 173/317/104 188/312/104
f 173/317/104 174/318/104 188/312/104
f 174/318/104 175/319/104 188/312/104
f 175/319/104 176/320/104 188/312/104
f 176/320/104 177/321/104 188/312/104
f 177/321/104 178/322/104 188/312/104
f 178/322/104 179/323/104 188/312/104
f 179/323/104 180/324/104 188/312/104
f 180/324/104 181/325/104 188/312/104
f 181/325/104 182/326/104 188/312/104
f 182/326/104 183/327/104 188/312/104
f 183/327/104 184/328/104 188/312/104
f 184/328/104 185/329/104 188/312/104
f 185/329/104 186/330/104 188/312/104
f 186/330/104 167/310/104 188/312/104
